<?xml version="1.0" encoding="UTF-8"?>
<svg xmlns="http://www.w3.org/2000/svg" width="1500" height="820" viewBox="0 0 1500 820" role="img" aria-labelledby="title desc">
<title id="title">Homogeneous decay and RT60 control in a tiny FDN</title>
<desc id="desc">Two-panel conceptual figure explaining that shorter and longer delay lines require different per-loop gains to achieve the same RT60 target in seconds.</desc>
<defs>
<style><![CDATA[
svg { background: #ffffff; }
text { font-family: 'Helvetica Neue', Helvetica, Arial, sans-serif; dominant-baseline: middle; }
]]></style>
</defs>
<rect x="0" y="0" width="1500" height="820" fill="#ffffff" />
<rect x="70" y="55" width="660" height="700" rx="0" fill="#ffffff" stroke="#222222" stroke-width="2.2" />
<text x="108" y="89" text-anchor="middle" font-size="24" font-weight="600" fill="#222222" font-style="normal">(a)</text>
<text x="418.0" y="83" text-anchor="middle" font-size="22" font-weight="500" fill="#222222"><tspan x="418.0" dy="0">Different delay lengths require</tspan><tspan x="418.0" dy="24">different per-loop gains</tspan></text>
<line x1="186" y1="131" x2="214" y2="131" fill="none" stroke="#2c7fb8" stroke-width="3.2" stroke-linecap="round" stroke-linejoin="round" />
<circle cx="200" cy="131" r="5.0" fill="#ffffff" stroke="#2c7fb8" stroke-width="2.4" />
<text x="224" y="131" text-anchor="start" font-size="17" font-weight="400" fill="#5a5a5a" font-style="normal">Short: 70 ms, g ≈ 0.62</text>
<line x1="430" y1="131" x2="458" y2="131" fill="none" stroke="#d95f02" stroke-width="3.2" stroke-linecap="round" stroke-linejoin="round" />
<rect x="439.0" y="126.0" width="10" height="10" rx="0" fill="#ffffff" stroke="#d95f02" stroke-width="2.1" />
<text x="468" y="131" text-anchor="start" font-size="17" font-weight="400" fill="#5a5a5a" font-style="normal">Long: 180 ms, g ≈ 0.29</text>
<text x="400.0" y="157" text-anchor="middle" font-size="17" font-weight="500" fill="#5a5a5a" font-style="normal">Both cases target RT60 = 1.0 s</text>
<line x1="154.0" y1="140" x2="154.0" y2="663" fill="none" stroke="#d7d7d7" stroke-width="1.2" stroke-linecap="round" stroke-linejoin="round" />
<text x="154.0" y="691" text-anchor="middle" font-size="18" font-weight="400" fill="#5a5a5a" font-style="normal">0.0</text>
<line x1="258.3809523809524" y1="140" x2="258.3809523809524" y2="663" fill="none" stroke="#d7d7d7" stroke-width="1.2" stroke-linecap="round" stroke-linejoin="round" />
<text x="258.3809523809524" y="691" text-anchor="middle" font-size="18" font-weight="400" fill="#5a5a5a" font-style="normal">0.2</text>
<line x1="362.76190476190476" y1="140" x2="362.76190476190476" y2="663" fill="none" stroke="#d7d7d7" stroke-width="1.2" stroke-linecap="round" stroke-linejoin="round" />
<text x="362.76190476190476" y="691" text-anchor="middle" font-size="18" font-weight="400" fill="#5a5a5a" font-style="normal">0.4</text>
<line x1="467.1428571428571" y1="140" x2="467.1428571428571" y2="663" fill="none" stroke="#d7d7d7" stroke-width="1.2" stroke-linecap="round" stroke-linejoin="round" />
<text x="467.1428571428571" y="691" text-anchor="middle" font-size="18" font-weight="400" fill="#5a5a5a" font-style="normal">0.6</text>
<line x1="571.5238095238095" y1="140" x2="571.5238095238095" y2="663" fill="none" stroke="#d7d7d7" stroke-width="1.2" stroke-linecap="round" stroke-linejoin="round" />
<text x="571.5238095238095" y="691" text-anchor="middle" font-size="18" font-weight="400" fill="#5a5a5a" font-style="normal">0.8</text>
<line x1="675.9047619047619" y1="140" x2="675.9047619047619" y2="663" fill="none" stroke="#d7d7d7" stroke-width="1.2" stroke-linecap="round" stroke-linejoin="round" />
<text x="675.9047619047619" y="691" text-anchor="middle" font-size="18" font-weight="400" fill="#5a5a5a" font-style="normal">1.0</text>
<line x1="154" y1="663.0" x2="702" y2="663.0" fill="none" stroke="#d7d7d7" stroke-width="1.2" stroke-linecap="round" stroke-linejoin="round" />
<text x="140" y="663.0" text-anchor="end" font-size="18" font-weight="400" fill="#5a5a5a" font-style="normal">0.0</text>
<line x1="154" y1="558.4" x2="702" y2="558.4" fill="none" stroke="#d7d7d7" stroke-width="1.2" stroke-linecap="round" stroke-linejoin="round" />
<text x="140" y="558.4" text-anchor="end" font-size="18" font-weight="400" fill="#5a5a5a" font-style="normal">0.2</text>
<line x1="154" y1="453.79999999999995" x2="702" y2="453.79999999999995" fill="none" stroke="#d7d7d7" stroke-width="1.2" stroke-linecap="round" stroke-linejoin="round" />
<text x="140" y="453.79999999999995" text-anchor="end" font-size="18" font-weight="400" fill="#5a5a5a" font-style="normal">0.4</text>
<line x1="154" y1="349.2" x2="702" y2="349.2" fill="none" stroke="#d7d7d7" stroke-width="1.2" stroke-linecap="round" stroke-linejoin="round" />
<text x="140" y="349.2" text-anchor="end" font-size="18" font-weight="400" fill="#5a5a5a" font-style="normal">0.6</text>
<line x1="154" y1="244.59999999999997" x2="702" y2="244.59999999999997" fill="none" stroke="#d7d7d7" stroke-width="1.2" stroke-linecap="round" stroke-linejoin="round" />
<text x="140" y="244.59999999999997" text-anchor="end" font-size="18" font-weight="400" fill="#5a5a5a" font-style="normal">0.8</text>
<line x1="154" y1="140.0" x2="702" y2="140.0" fill="none" stroke="#d7d7d7" stroke-width="1.2" stroke-linecap="round" stroke-linejoin="round" />
<text x="140" y="140.0" text-anchor="end" font-size="18" font-weight="400" fill="#5a5a5a" font-style="normal">1.0</text>
<line x1="154" y1="140" x2="154" y2="663" fill="none" stroke="#222222" stroke-width="2.2" stroke-linecap="round" stroke-linejoin="round" />
<line x1="154" y1="663" x2="702" y2="663" fill="none" stroke="#222222" stroke-width="2.2" stroke-linecap="round" stroke-linejoin="round" />
<text x="428.0" y="725" text-anchor="middle" font-size="22" font-weight="500" fill="#222222" font-style="normal">Time (s)</text>
<text x="92" y="401.5" text-anchor="middle" font-size="22" font-weight="500" fill="#222222" font-style="normal" transform="rotate(-90 92 401.5)">Amplitude</text>
<line x1="154.0" y1="663.0" x2="154.0" y2="140.0" fill="none" stroke="#2c7fb8" stroke-width="2.2" stroke-linecap="round" stroke-linejoin="round" />
<circle cx="154.0" cy="140.0" r="5.5" fill="#ffffff" stroke="#2c7fb8" stroke-width="2.6" />
<line x1="190.53333333333333" y1="663.0" x2="190.53333333333333" y2="340.5208140264449" fill="none" stroke="#2c7fb8" stroke-width="2.2" stroke-linecap="round" stroke-linejoin="round" />
<circle cx="190.53333333333333" cy="340.5208140264449" r="5.5" fill="#ffffff" stroke="#2c7fb8" stroke-width="2.6" />
<line x1="227.06666666666666" y1="663.0" x2="227.06666666666666" y2="464.16094572434656" fill="none" stroke="#2c7fb8" stroke-width="2.2" stroke-linecap="round" stroke-linejoin="round" />
<circle cx="227.06666666666666" cy="464.16094572434656" r="5.5" fill="#ffffff" stroke="#2c7fb8" stroke-width="2.6" />
<line x1="263.6" y1="663.0" x2="263.6" y2="540.3968329587681" fill="none" stroke="#2c7fb8" stroke-width="2.2" stroke-linecap="round" stroke-linejoin="round" />
<circle cx="263.6" cy="540.3968329587681" r="5.5" fill="#ffffff" stroke="#2c7fb8" stroke-width="2.6" />
<line x1="300.1333333333333" y1="663.0" x2="300.1333333333333" y2="587.4034999899881" fill="none" stroke="#2c7fb8" stroke-width="2.2" stroke-linecap="round" stroke-linejoin="round" />
<circle cx="300.1333333333333" cy="587.4034999899881" r="5.5" fill="#ffffff" stroke="#2c7fb8" stroke-width="2.6" />
<line x1="336.6666666666667" y1="663.0" x2="336.6666666666667" y2="616.3875759356051" fill="none" stroke="#2c7fb8" stroke-width="2.2" stroke-linecap="round" stroke-linejoin="round" />
<circle cx="336.6666666666667" cy="616.3875759356051" r="5.5" fill="#ffffff" stroke="#2c7fb8" stroke-width="2.6" />
<line x1="373.20000000000005" y1="663.0" x2="373.20000000000005" y2="634.2590122972463" fill="none" stroke="#2c7fb8" stroke-width="2.2" stroke-linecap="round" stroke-linejoin="round" />
<circle cx="373.20000000000005" cy="634.2590122972463" r="5.5" fill="#ffffff" stroke="#2c7fb8" stroke-width="2.6" />
<line x1="409.73333333333335" y1="663.0" x2="409.73333333333335" y2="645.2784506339198" fill="none" stroke="#2c7fb8" stroke-width="2.2" stroke-linecap="round" stroke-linejoin="round" />
<circle cx="409.73333333333335" cy="645.2784506339198" r="5.5" fill="#ffffff" stroke="#2c7fb8" stroke-width="2.6" />
<line x1="446.26666666666665" y1="663.0" x2="446.26666666666665" y2="652.0729812356334" fill="none" stroke="#2c7fb8" stroke-width="2.2" stroke-linecap="round" stroke-linejoin="round" />
<circle cx="446.26666666666665" cy="652.0729812356334" r="5.5" fill="#ffffff" stroke="#2c7fb8" stroke-width="2.6" />
<line x1="482.80000000000007" y1="663.0" x2="482.80000000000007" y2="656.2624548446449" fill="none" stroke="#2c7fb8" stroke-width="2.2" stroke-linecap="round" stroke-linejoin="round" />
<circle cx="482.80000000000007" cy="656.2624548446449" r="5.5" fill="#ffffff" stroke="#2c7fb8" stroke-width="2.6" />
<line x1="519.3333333333334" y1="663.0" x2="519.3333333333334" y2="658.8456633323921" fill="none" stroke="#2c7fb8" stroke-width="2.2" stroke-linecap="round" stroke-linejoin="round" />
<circle cx="519.3333333333334" cy="658.8456633323921" r="5.5" fill="#ffffff" stroke="#2c7fb8" stroke-width="2.6" />
<line x1="555.8666666666666" y1="663.0" x2="555.8666666666666" y2="660.438456774703" fill="none" stroke="#2c7fb8" stroke-width="2.2" stroke-linecap="round" stroke-linejoin="round" />
<circle cx="555.8666666666666" cy="660.438456774703" r="5.5" fill="#ffffff" stroke="#2c7fb8" stroke-width="2.6" />
<line x1="592.4000000000001" y1="663.0" x2="592.4000000000001" y2="661.4205652502297" fill="none" stroke="#2c7fb8" stroke-width="2.2" stroke-linecap="round" stroke-linejoin="round" />
<circle cx="592.4000000000001" cy="661.4205652502297" r="5.5" fill="#ffffff" stroke="#2c7fb8" stroke-width="2.6" />
<line x1="628.9333333333334" y1="663.0" x2="628.9333333333334" y2="662.0261284275254" fill="none" stroke="#2c7fb8" stroke-width="2.2" stroke-linecap="round" stroke-linejoin="round" />
<circle cx="628.9333333333334" cy="662.0261284275254" r="5.5" fill="#ffffff" stroke="#2c7fb8" stroke-width="2.6" />
<line x1="665.4666666666667" y1="663.0" x2="665.4666666666667" y2="662.3995156559571" fill="none" stroke="#2c7fb8" stroke-width="2.2" stroke-linecap="round" stroke-linejoin="round" />
<circle cx="665.4666666666667" cy="662.3995156559571" r="5.5" fill="#ffffff" stroke="#2c7fb8" stroke-width="2.6" />
<line x1="702.0" y1="663.0" x2="702.0" y2="662.6297443547671" fill="none" stroke="#2c7fb8" stroke-width="2.2" stroke-linecap="round" stroke-linejoin="round" />
<circle cx="702.0" cy="662.6297443547671" r="5.5" fill="#ffffff" stroke="#2c7fb8" stroke-width="2.6" />
<line x1="154.0" y1="663.0" x2="154.0" y2="140.0" fill="none" stroke="#d95f02" stroke-width="2.8" stroke-linecap="round" stroke-linejoin="round" />
<rect x="148.5" y="134.5" width="11" height="11" rx="0" fill="#ffffff" stroke="#d95f02" stroke-width="2.2" />
<line x1="247.94285714285712" y1="663.0" x2="247.94285714285712" y2="512.1651523864786" fill="none" stroke="#d95f02" stroke-width="2.8" stroke-linecap="round" stroke-linejoin="round" />
<rect x="242.44285714285712" y="506.66515238647855" width="11" height="11" rx="0" fill="#ffffff" stroke="#d95f02" stroke-width="2.2" />
<line x1="341.88571428571424" y1="663.0" x2="341.88571428571424" y2="619.4987547713304" fill="none" stroke="#d95f02" stroke-width="2.8" stroke-linecap="round" stroke-linejoin="round" />
<rect x="336.38571428571424" y="613.9987547713304" width="11" height="11" rx="0" fill="#ffffff" stroke="#d95f02" stroke-width="2.2" />
<line x1="435.8285714285715" y1="663.0" x2="435.8285714285715" y2="650.454103833528" fill="none" stroke="#d95f02" stroke-width="2.8" stroke-linecap="round" stroke-linejoin="round" />
<rect x="430.3285714285715" y="644.954103833528" width="11" height="11" rx="0" fill="#ffffff" stroke="#d95f02" stroke-width="2.2" />
<line x1="529.7714285714285" y1="663.0" x2="529.7714285714285" y2="659.381724022094" fill="none" stroke="#d95f02" stroke-width="2.8" stroke-linecap="round" stroke-linejoin="round" />
<rect x="524.2714285714285" y="653.881724022094" width="11" height="11" rx="0" fill="#ffffff" stroke="#d95f02" stroke-width="2.2" />
<line x1="623.7142857142856" y1="663.0" x2="623.7142857142856" y2="661.9564778092713" fill="none" stroke="#d95f02" stroke-width="2.8" stroke-linecap="round" stroke-linejoin="round" />
<rect x="618.2142857142856" y="656.4564778092713" width="11" height="11" rx="0" fill="#ffffff" stroke="#d95f02" stroke-width="2.2" />
<text x="243.06666666666666" y="442.16094572434656" text-anchor="start" font-size="19" font-weight="500" fill="#2c7fb8" font-style="normal">Short delay</text>
<text x="265.9428571428571" y="492.16515238647855" text-anchor="start" font-size="19" font-weight="500" fill="#d95f02" font-style="normal">Long delay</text>
<rect x="770" y="55" width="660" height="700" rx="0" fill="#ffffff" stroke="#222222" stroke-width="2.2" />
<text x="808" y="89" text-anchor="middle" font-size="24" font-weight="600" fill="#222222" font-style="normal">(b)</text>
<text x="1100.0" y="89" text-anchor="middle" font-size="24" font-weight="500" fill="#222222" font-style="normal">Same RT60 in elapsed time</text>
<line x1="872" y1="131" x2="900" y2="131" fill="none" stroke="#2c7fb8" stroke-width="3.2" stroke-linecap="round" stroke-linejoin="round" />
<circle cx="886" cy="131" r="5.0" fill="#ffffff" stroke="#2c7fb8" stroke-width="2.4" />
<text x="910" y="131" text-anchor="start" font-size="17" font-weight="400" fill="#5a5a5a" font-style="normal">Short-delay samples</text>
<line x1="1080" y1="131" x2="1108" y2="131" fill="none" stroke="#d95f02" stroke-width="3.2" stroke-linecap="round" stroke-linejoin="round" />
<rect x="1089.0" y="126.0" width="10" height="10" rx="0" fill="#ffffff" stroke="#d95f02" stroke-width="2.1" />
<text x="1118" y="131" text-anchor="start" font-size="17" font-weight="400" fill="#5a5a5a" font-style="normal">Long-delay samples</text>
<line x1="1264" y1="131" x2="1292" y2="131" fill="none" stroke="#222222" stroke-width="2.0" stroke-linecap="round" stroke-linejoin="round" stroke-dasharray="7 6" />
<text x="1302" y="131" text-anchor="start" font-size="17" font-weight="400" fill="#5a5a5a" font-style="normal">Common RT60 target</text>
<line x1="854.0" y1="140" x2="854.0" y2="663" fill="none" stroke="#d7d7d7" stroke-width="1.2" stroke-linecap="round" stroke-linejoin="round" />
<text x="854.0" y="691" text-anchor="middle" font-size="18" font-weight="400" fill="#5a5a5a" font-style="normal">0.0</text>
<line x1="958.3809523809524" y1="140" x2="958.3809523809524" y2="663" fill="none" stroke="#d7d7d7" stroke-width="1.2" stroke-linecap="round" stroke-linejoin="round" />
<text x="958.3809523809524" y="691" text-anchor="middle" font-size="18" font-weight="400" fill="#5a5a5a" font-style="normal">0.2</text>
<line x1="1062.7619047619048" y1="140" x2="1062.7619047619048" y2="663" fill="none" stroke="#d7d7d7" stroke-width="1.2" stroke-linecap="round" stroke-linejoin="round" />
<text x="1062.7619047619048" y="691" text-anchor="middle" font-size="18" font-weight="400" fill="#5a5a5a" font-style="normal">0.4</text>
<line x1="1167.142857142857" y1="140" x2="1167.142857142857" y2="663" fill="none" stroke="#d7d7d7" stroke-width="1.2" stroke-linecap="round" stroke-linejoin="round" />
<text x="1167.142857142857" y="691" text-anchor="middle" font-size="18" font-weight="400" fill="#5a5a5a" font-style="normal">0.6</text>
<line x1="1271.5238095238096" y1="140" x2="1271.5238095238096" y2="663" fill="none" stroke="#d7d7d7" stroke-width="1.2" stroke-linecap="round" stroke-linejoin="round" />
<text x="1271.5238095238096" y="691" text-anchor="middle" font-size="18" font-weight="400" fill="#5a5a5a" font-style="normal">0.8</text>
<line x1="1375.904761904762" y1="140" x2="1375.904761904762" y2="663" fill="none" stroke="#d7d7d7" stroke-width="1.2" stroke-linecap="round" stroke-linejoin="round" />
<text x="1375.904761904762" y="691" text-anchor="middle" font-size="18" font-weight="400" fill="#5a5a5a" font-style="normal">1.0</text>
<line x1="854" y1="140.0" x2="1402" y2="140.0" fill="none" stroke="#d7d7d7" stroke-width="1.2" stroke-linecap="round" stroke-linejoin="round" />
<text x="838" y="140.0" text-anchor="end" font-size="18" font-weight="400" fill="#5a5a5a" font-style="normal">0</text>
<line x1="854" y1="289.42857142857144" x2="1402" y2="289.42857142857144" fill="none" stroke="#d7d7d7" stroke-width="1.2" stroke-linecap="round" stroke-linejoin="round" />
<text x="838" y="289.42857142857144" text-anchor="end" font-size="18" font-weight="400" fill="#5a5a5a" font-style="normal">-20</text>
<line x1="854" y1="438.8571428571429" x2="1402" y2="438.8571428571429" fill="none" stroke="#d7d7d7" stroke-width="1.2" stroke-linecap="round" stroke-linejoin="round" />
<text x="838" y="438.8571428571429" text-anchor="end" font-size="18" font-weight="400" fill="#5a5a5a" font-style="normal">-40</text>
<line x1="854" y1="588.2857142857143" x2="1402" y2="588.2857142857143" fill="none" stroke="#d7d7d7" stroke-width="1.2" stroke-linecap="round" stroke-linejoin="round" />
<text x="838" y="588.2857142857143" text-anchor="end" font-size="18" font-weight="400" fill="#5a5a5a" font-style="normal">-60</text>
<line x1="854" y1="140" x2="854" y2="663" fill="none" stroke="#222222" stroke-width="2.2" stroke-linecap="round" stroke-linejoin="round" />
<line x1="854" y1="663" x2="1402" y2="663" fill="none" stroke="#222222" stroke-width="2.2" stroke-linecap="round" stroke-linejoin="round" />
<text x="1128.0" y="725" text-anchor="middle" font-size="22" font-weight="500" fill="#222222" font-style="normal">Time (s)</text>
<text x="792" y="401.5" text-anchor="middle" font-size="22" font-weight="500" fill="#222222" font-style="normal" transform="rotate(-90 792 401.5)">Level (dB)</text>
<line x1="1375.904761904762" y1="140" x2="1375.904761904762" y2="663" fill="none" stroke="#5a5a5a" stroke-width="1.8" stroke-linecap="round" stroke-linejoin="round" stroke-dasharray="7 6" />
<line x1="854" y1="588.2857142857143" x2="1402" y2="588.2857142857143" fill="none" stroke="#5a5a5a" stroke-width="1.8" stroke-linecap="round" stroke-linejoin="round" stroke-dasharray="7 6" />
<text x="1375.904761904762" y="126" text-anchor="middle" font-size="19" font-weight="500" fill="#5a5a5a" font-style="normal">RT60</text>
<text x="1398" y="574.2857142857143" text-anchor="end" font-size="18" font-weight="400" fill="#5a5a5a" font-style="normal">-60 dB</text>
<path d="M 854.00 140.00 L 859.22 144.48 L 864.44 148.97 L 869.66 153.45 L 874.88 157.93 L 880.10 162.41 L 885.31 166.90 L 890.53 171.38 L 895.75 175.86 L 900.97 180.35 L 906.19 184.83 L 911.41 189.31 L 916.63 193.79 L 921.85 198.28 L 927.07 202.76 L 932.29 207.24 L 937.50 211.73 L 942.72 216.21 L 947.94 220.69 L 953.16 225.17 L 958.38 229.66 L 963.60 234.14 L 968.82 238.62 L 974.04 243.11 L 979.26 247.59 L 984.48 252.07 L 989.70 256.55 L 994.91 261.04 L 1000.13 265.52 L 1005.35 270.00 L 1010.57 274.49 L 1015.79 278.97 L 1021.01 283.45 L 1026.23 287.93 L 1031.45 292.42 L 1036.67 296.90 L 1041.89 301.38 L 1047.10 305.87 L 1052.32 310.35 L 1057.54 314.83 L 1062.76 319.31 L 1067.98 323.80 L 1073.20 328.28 L 1078.42 332.76 L 1083.64 337.25 L 1088.86 341.73 L 1094.08 346.21 L 1099.30 350.69 L 1104.51 355.18 L 1109.73 359.66 L 1114.95 364.14 L 1120.17 368.63 L 1125.39 373.11 L 1130.61 377.59 L 1135.83 382.07 L 1141.05 386.56 L 1146.27 391.04 L 1151.49 395.52 L 1156.70 400.01 L 1161.92 404.49 L 1167.14 408.97 L 1172.36 413.45 L 1177.58 417.94 L 1182.80 422.42 L 1188.02 426.90 L 1193.24 431.39 L 1198.46 435.87 L 1203.68 440.35 L 1208.90 444.83 L 1214.11 449.32 L 1219.33 453.80 L 1224.55 458.28 L 1229.77 462.77 L 1234.99 467.25 L 1240.21 471.73 L 1245.43 476.21 L 1250.65 480.70 L 1255.87 485.18 L 1261.09 489.66 L 1266.30 494.15 L 1271.52 498.63 L 1276.74 503.11 L 1281.96 507.59 L 1287.18 512.08 L 1292.40 516.56 L 1297.62 521.04 L 1302.84 525.53 L 1308.06 530.01 L 1313.28 534.49 L 1318.50 538.97 L 1323.71 543.46 L 1328.93 547.94 L 1334.15 552.42 L 1339.37 556.91 L 1344.59 561.39 L 1349.81 565.87 L 1355.03 570.35 L 1360.25 574.84 L 1365.47 579.32 L 1370.69 583.80 L 1375.90 588.29 L 1381.12 592.77 L 1386.34 597.25 L 1391.56 601.73 L 1396.78 606.22 L 1402.00 610.70" fill="none" stroke="#222222" stroke-width="2.0" stroke-dasharray="8 6" />
<circle cx="854.0" cy="140.0" r="5.2" fill="#ffffff" stroke="#2c7fb8" stroke-width="2.6" />
<circle cx="890.5333333333333" cy="171.38000000000005" r="5.2" fill="#ffffff" stroke="#2c7fb8" stroke-width="2.6" />
<circle cx="927.0666666666666" cy="202.76000000000005" r="5.2" fill="#ffffff" stroke="#2c7fb8" stroke-width="2.6" />
<circle cx="963.6" cy="234.1400000000001" r="5.2" fill="#ffffff" stroke="#2c7fb8" stroke-width="2.6" />
<circle cx="1000.1333333333333" cy="265.52000000000004" r="5.2" fill="#ffffff" stroke="#2c7fb8" stroke-width="2.6" />
<circle cx="1036.6666666666667" cy="296.9000000000001" r="5.2" fill="#ffffff" stroke="#2c7fb8" stroke-width="2.6" />
<circle cx="1073.2" cy="328.28" r="5.2" fill="#ffffff" stroke="#2c7fb8" stroke-width="2.6" />
<circle cx="1109.7333333333333" cy="359.66" r="5.2" fill="#ffffff" stroke="#2c7fb8" stroke-width="2.6" />
<circle cx="1146.2666666666667" cy="391.04" r="5.2" fill="#ffffff" stroke="#2c7fb8" stroke-width="2.6" />
<circle cx="1182.8000000000002" cy="422.4200000000001" r="5.2" fill="#ffffff" stroke="#2c7fb8" stroke-width="2.6" />
<circle cx="1219.3333333333335" cy="453.80000000000007" r="5.2" fill="#ffffff" stroke="#2c7fb8" stroke-width="2.6" />
<circle cx="1255.8666666666666" cy="485.18000000000006" r="5.2" fill="#ffffff" stroke="#2c7fb8" stroke-width="2.6" />
<circle cx="1292.4" cy="516.5600000000002" r="5.2" fill="#ffffff" stroke="#2c7fb8" stroke-width="2.6" />
<circle cx="1328.9333333333334" cy="547.94" r="5.2" fill="#ffffff" stroke="#2c7fb8" stroke-width="2.6" />
<circle cx="1365.4666666666667" cy="579.3200000000002" r="5.2" fill="#ffffff" stroke="#2c7fb8" stroke-width="2.6" />
<circle cx="1402.0" cy="610.7000000000002" r="5.2" fill="#ffffff" stroke="#2c7fb8" stroke-width="2.6" />
<rect x="848.75" y="134.75" width="10.5" height="10.5" rx="0" fill="#ffffff" stroke="#d95f02" stroke-width="2.2" />
<rect x="942.6928571428571" y="215.44142857142856" width="10.5" height="10.5" rx="0" fill="#ffffff" stroke="#d95f02" stroke-width="2.2" />
<rect x="1036.6357142857141" y="296.1328571428572" width="10.5" height="10.5" rx="0" fill="#ffffff" stroke="#d95f02" stroke-width="2.2" />
<rect x="1130.5785714285714" y="376.8242857142858" width="10.5" height="10.5" rx="0" fill="#ffffff" stroke="#d95f02" stroke-width="2.2" />
<rect x="1224.5214285714285" y="457.5157142857143" width="10.5" height="10.5" rx="0" fill="#ffffff" stroke="#d95f02" stroke-width="2.2" />
<rect x="1318.4642857142856" y="538.2071428571428" width="10.5" height="10.5" rx="0" fill="#ffffff" stroke="#d95f02" stroke-width="2.2" />
</svg>